<svg id="visual" viewBox="0 0 960 540" width="960" height="540" xmlns="http://www.w3.org/2000/svg" xmlns:xlink="http://www.w3.org/1999/xlink" version="1.1"><rect x="0" y="0" width="960" height="540" fill="#1ac7ee"></rect><path d="M0 270L120 267L240 296L360 340L480 363L600 346L720 265L840 342L960 276L960 541L840 541L720 541L600 541L480 541L360 541L240 541L120 541L0 541Z" fill="#7cf50a"></path><path d="M0 378L120 364L240 360L360 328L480 397L600 337L720 316L840 413L960 365L960 541L840 541L720 541L600 541L480 541L360 541L240 541L120 541L0 541Z" fill="#62df22"></path><path d="M0 414L120 437L240 448L360 382L480 424L600 381L720 352L840 385L960 439L960 541L840 541L720 541L600 541L480 541L360 541L240 541L120 541L0 541Z" fill="#4ac82b"></path><path d="M0 466L120 459L240 404L360 394L480 436L600 406L720 411L840 430L960 398L960 541L840 541L720 541L600 541L480 541L360 541L240 541L120 541L0 541Z" fill="#33b230"></path><path d="M0 441L120 476L240 471L360 436L480 488L600 489L720 430L840 450L960 442L960 541L840 541L720 541L600 541L480 541L360 541L240 541L120 541L0 541Z" fill="#1c9c32"></path><path d="M0 484L120 478L240 510L360 478L480 466L600 496L720 504L840 494L960 511L960 541L840 541L720 541L600 541L480 541L360 541L240 541L120 541L0 541Z" fill="#008731"></path></svg>